# xmcd CD database file
#
# Track frame offsets:
#	150
#	32777
#	50252
#	65630
#	84005
#	97479
#	114032
#	153777
#	203780
#	217422
#	232132
#
# Disc length: 3251 seconds
#
# Revision: 0
# Processed by: cddbd v1.5.2PL0 Copyright (c) Steve Scherf et al.
# Submitted via: CDex 1.51
#
DISCID=960cb10b
DTITLE=Great Jazz Legends CD 4 - Great Jazz Legends CD 4
DYEAR=1995
DGENRE=Jazz
TTITLE0=Flutie
TTITLE1=Big Foot
TTITLE2=The Breeze and I
TTITLE3=Long Ago and Far Away
TTITLE4=Stranger in Paradise
TTITLE5=Jeepers Creepers
TTITLE6=All the Things You Are
TTITLE7=Love for Sale
TTITLE8=A Night in Tunisia
TTITLE9=Stompin' at the Savoy
TTITLE10=Jubilee Stomp
EXTD=YEAR: 1995
EXTT0=
EXTT1=
EXTT2=
EXTT3=
EXTT4=
EXTT5=
EXTT6=
EXTT7=
EXTT8=
EXTT9=
EXTT10=
PLAYORDER=
